<svg version="1.1" viewBox="0.0 0.0 960.0 540.0" fill="none" stroke="none" stroke-linecap="square" stroke-miterlimit="10" xmlns:xlink="http://www.w3.org/1999/xlink" xmlns="http://www.w3.org/2000/svg"><clipPath id="p.0"><path d="m0 0l960.0 0l0 540.0l-960.0 0l0 -540.0z" clip-rule="nonzero"/></clipPath><g clip-path="url(#p.0)"><path fill="#000000" fill-opacity="0.0" d="m0 0l960.0 0l0 540.0l-960.0 0z" fill-rule="evenodd"/><defs><linearGradient id="p.1" gradientUnits="userSpaceOnUse" gradientTransform="matrix(30.983939415542963 0.0 0.0 30.983939415542963 0.0 0.0)" spreadMethod="pad" x1="3.049585983436502E-7" y1="12.98750659356776" x2="30.983939720501564" y2="12.98750659356776"><stop offset="0.0" stop-color="#4d29aa"/><stop offset="0.15" stop-color="#aa2995"/><stop offset="0.28" stop-color="#aa2929"/><stop offset="0.42" stop-color="#aa7229"/><stop offset="0.56" stop-color="#29aa48"/><stop offset="0.71" stop-color="#299baa"/><stop offset="0.86" stop-color="#292baa"/><stop offset="1.0" stop-color="#4d29aa"/></linearGradient></defs><path fill="url(#p.1)" d="m9.448819E-6 206.31842l10.482006 17.375275l57.097107 0l0 65.86554c0 9.852295 -3.8490715 14.778412 -11.547253 14.778412c-4.8859367 0 -10.467815 -3.4782104 -16.745644 -10.434601l-9.416761 9.301453c11.675081 19.515717 34.712776 52.582245 69.11306 99.199615l13.592522 -9.254242c-25.310211 -29.808685 -42.66658 -52.535034 -52.069153 -68.17908c8.720818 -1.1646423 15.126472 -4.265106 19.21701 -9.301422c4.118965 -5.036316 6.178421 -10.938263 6.178421 -17.70581l0 -74.26987l57.858925 0l0 163.64868l18.577866 14.778442l0 -178.42712l56.257477 0l0 65.86554c-11.504639 0 -17.256958 2.7070007 -17.256958 8.121033c0 6.2009583 3.479782 13.550842 10.439392 22.049622c6.9880066 8.498779 13.109604 12.748169 18.364807 12.748169c2.7838593 0 4.658676 -1.2433472 5.6244965 -3.730011c0.9658203 -2.5181885 1.4487305 -6.4842834 1.4487305 -11.898315l0 -93.15604l45.80551 0l0 163.36539l18.57788 15.061737l0 -178.42712l40.564514 0l-10.737671 -17.375275z" fill-rule="evenodd"/><defs><linearGradient id="p.2" gradientUnits="userSpaceOnUse" gradientTransform="matrix(30.983939415542963 0.0 0.0 30.983939415542963 0.0 0.0)" spreadMethod="pad" x1="3.049585983436502E-7" y1="12.98750659356776" x2="30.983939720501564" y2="12.98750659356776"><stop offset="0.0" stop-color="#4d29aa"/><stop offset="0.15" stop-color="#aa2995"/><stop offset="0.28" stop-color="#aa2929"/><stop offset="0.42" stop-color="#aa7229"/><stop offset="0.56" stop-color="#29aa48"/><stop offset="0.71" stop-color="#299baa"/><stop offset="0.86" stop-color="#292baa"/><stop offset="1.0" stop-color="#4d29aa"/></linearGradient></defs><path fill="url(#p.2)" d="m569.6959 223.6937l0 74.88367l-59.69629 0l0 -74.88367zm-106.196106 -86.12094c-14.203278 0 -26.986206 2.707016 -38.348816 8.121048c-6.1073914 2.707016 -10.993317 6.6259003 -14.657776 11.756653c-3.6644287 5.0992584 -5.496643 11.142838 -5.496643 18.130722c0 12.748169 3.9342957 22.993912 11.8029175 30.737244l-40.564514 0l10.183716 17.375275l29.869476 0l0 164.21527l18.57785 14.211853l0 -178.42712l56.555756 0l0 74.88367l-4.4740295 0c-9.260529 0 -13.890778 3.5254211 -13.890778 10.576263c0 7.0508423 3.7496338 14.888611 11.248962 23.513275c7.5277405 8.593231 14.075439 12.889832 19.643127 12.889832c4.033722 0 6.0505676 -2.4237366 6.0505676 -7.271179l0 -20.585938l59.69629 0l0 69.64276l18.57788 14.778442l0 -178.42712l171.47809 0l0 50.190002c-7.8685913 -5.791748 -16.603638 -8.687622 -26.205017 -8.687622c-12.555664 0 -22.24231 5.414032 -29.059875 16.242096c-3.8349 -4.6271057 -8.720825 -8.577484 -14.657776 -11.851074c-5.9369507 -3.3050842 -12.129578 -4.957611 -18.57788 -4.957611c-11.873901 0 -21.872986 4.4539795 -29.997253 13.361969c-8.095886 8.876495 -12.143799 19.987854 -12.143799 33.334076c0 28.234833 17.015503 58.49994 51.04651 90.79529l9.672424 -7.554474c-28.97467 -27.259064 -43.461975 -52.110107 -43.461975 -74.55316c0 -11.394653 2.8406372 -20.475769 8.521973 -27.243317c5.6812744 -6.7675476 12.924988 -10.151306 21.730957 -10.151306c8.80603 0 16.362183 3.2893372 22.668396 9.868011c-2.4429321 6.1694946 -3.6644287 14.038727 -3.6644287 23.607727c0 9.569 1.7327881 18.996338 5.1984253 28.282043l16.234314 5.5242004c-2.272522 -10.828064 -3.4088135 -21.073822 -3.4088135 -30.737244c0 -9.663422 2.2299194 -18.06778 6.6897583 -25.213043c4.459839 -7.1767273 11.746094 -10.765106 21.858826 -10.765106c5.9369507 0 11.788696 1.070221 17.555237 3.2106323l0 100.946594l18.833496 14.778442l0 -178.42712l122.53235 0l0 59.77475l-71.456604 0c-9.430969 0 -14.146423 3.871643 -14.146423 11.61499c0 7.7433167 3.5792236 16.651306 10.737671 26.723938c7.158386 10.041138 13.436218 15.061707 18.833496 15.061707c4.00531 0 6.0079956 -2.518158 6.0079956 -7.554474l0 -26.676697l50.023865 0l0 85.55435l18.322205 13.928558l0 -178.42712l40.564514 0l-10.737671 -17.375275l-517.0426 0c-6.9595947 -6.2009583 -10.439392 -13.94429 -10.439392 -23.229996c0 -9.28569 4.6160583 -16.242096 13.848175 -20.869217c9.260529 -4.6585846 21.304901 -6.9878845 36.133118 -6.9878845c22.327515 0 43.305725 4.1707 62.93463 12.512085c19.657349 8.309921 36.118896 17.784485 49.384766 28.42369l7.3288574 -7.271179c-16.759827 -12.559296 -33.860596 -23.481796 -51.302185 -32.7675c-11.36261 -6.0121 -23.421143 -10.607727 -36.17569 -13.786911c-12.726135 -3.1791687 -26.205017 -4.768753 -40.436676 -4.768753z" fill-rule="evenodd"/></g></svg>